<?xml version="1.0" standalone="no"?>
<!DOCTYPE svg PUBLIC "-//W3C//DTD SVG 20010904//EN"
 "http://www.w3.org/TR/2001/REC-SVG-20010904/DTD/svg10.dtd">
<svg version="1.0" xmlns="http://www.w3.org/2000/svg"
 width="512.000000pt" height="512.000000pt" viewBox="0 0 512.000000 512.000000"
 preserveAspectRatio="xMidYMid meet">
<metadata>
Created by potrace 1.14, written by Peter Selinger 2001-2017
</metadata>
<g transform="translate(0.000000,512.000000) scale(0.100000,-0.100000)"
fill="#000000" stroke="none">
<path d="M2530 5023 c0 -6 8 -17 18 -24 16 -13 16 -13 2 6 -8 11 -16 22 -17
24 -2 2 -3 0 -3 -6z"/>
<path d="M3141 5016 c3 -3 35 -11 72 -19 37 -7 64 -10 60 -6 -13 12 -144 37
-132 25z"/>
<path d="M3164 4845 c11 -8 24 -15 30 -15 5 0 1 7 -10 15 -10 8 -23 14 -29 14
-5 0 -1 -6 9 -14z"/>
<path d="M3220 4816 c0 -2 14 -14 30 -26 17 -12 30 -19 30 -16 0 2 -13 14 -30
26 -16 12 -30 19 -30 16z"/>
<path d="M3315 4740 c10 -11 20 -20 23 -20 3 0 -3 9 -13 20 -10 11 -20 20 -23
20 -3 0 3 -9 13 -20z"/>
<path d="M1872 4719 c-23 -17 -42 -33 -42 -35 0 -3 20 9 45 27 40 29 51 39 42
39 -2 0 -22 -14 -45 -31z"/>
<path d="M3790 4680 c19 -18 53 -49 74 -69 l39 -36 -29 38 c-16 20 -49 51 -74
68 l-45 32 35 -33z"/>
<path d="M3553 4438 c34 -68 68 -139 76 -158 8 -19 31 -73 51 -120 21 -47 47
-107 59 -134 12 -27 24 -47 27 -44 3 3 -6 30 -20 59 -14 30 -55 122 -91 204
-61 139 -151 315 -160 315 -2 0 24 -55 58 -122z"/>
<path d="M3940 4521 c5 -11 15 -23 21 -27 6 -3 3 5 -6 20 -20 30 -30 35 -15 7z"/>
<path d="M1619 4473 c-32 -36 -53 -63 -47 -63 2 0 21 20 41 45 42 49 45 61 6
18z"/>
<path d="M3986 4447 c3 -10 9 -15 12 -12 3 3 0 11 -7 18 -10 9 -11 8 -5 -6z"/>
<path d="M2552 4430 c0 -14 2 -19 5 -12 2 6 2 18 0 25 -3 6 -5 1 -5 -13z"/>
<path d="M3111 4448 c-1 -12 31 -89 35 -85 3 2 -4 24 -15 48 -11 24 -20 41
-20 37z"/>
<path d="M1258 4403 c7 -3 16 -2 19 1 4 3 -2 6 -13 5 -11 0 -14 -3 -6 -6z"/>
<path d="M1303 4393 c9 -2 23 -2 30 0 6 3 -1 5 -18 5 -16 0 -22 -2 -12 -5z"/>
<path d="M1531 4380 c-13 -11 -19 -20 -14 -20 6 0 18 9 28 20 23 25 17 25 -14
0z"/>
<path d="M3426 4386 c3 -9 13 -16 22 -16 8 0 13 1 11 3 -2 1 -12 9 -22 16 -15
12 -17 12 -11 -3z"/>
<path d="M2542 4360 c0 -14 2 -19 5 -12 2 6 2 18 0 25 -3 6 -5 1 -5 -13z"/>
<path d="M3225 4340 c11 -16 28 -25 42 -24 34 1 41 14 8 14 -16 0 -37 8 -49
18 -20 17 -20 17 -1 -8z"/>
<path d="M3455 4329 c-39 -15 -42 -17 -16 -13 39 7 104 33 81 33 -8 0 -37 -9
-65 -20z"/>
<path d="M1459 4304 c-13 -15 -42 -34 -64 -44 -36 -16 -37 -17 -12 -16 18 1
42 15 69 44 23 23 40 42 37 42 -3 0 -16 -12 -30 -26z"/>
<path d="M2671 4314 c0 -11 3 -14 6 -6 3 7 2 16 -1 19 -3 4 -6 -2 -5 -13z"/>
<path d="M2060 4264 c-17 -31 -30 -58 -28 -60 2 -2 19 24 37 56 18 33 30 60
28 60 -3 0 -19 -25 -37 -56z"/>
<path d="M3152 4290 c-9 -15 -7 -19 10 -23 15 -4 19 -11 15 -26 -3 -12 -1 -21
3 -21 5 0 10 -8 12 -17 3 -10 6 1 9 24 2 23 0 41 -5 40 -5 -1 -14 8 -21 20
-11 20 -12 21 -23 3z"/>
<path d="M3378 4303 c7 -3 16 -2 19 1 4 3 -2 6 -13 5 -11 0 -14 -3 -6 -6z"/>
<path d="M2135 4289 c-4 -6 -5 -12 -2 -15 2 -3 7 2 10 11 7 17 1 20 -8 4z"/>
<path d="M3313 4290 c-35 -14 -27 -20 10 -8 17 6 34 13 36 14 8 7 -24 3 -46
-6z"/>
<path d="M2793 4255 c0 -22 2 -30 4 -17 2 12 2 30 0 40 -3 9 -5 -1 -4 -23z"/>
<path d="M3480 4285 c0 -5 5 -17 10 -25 5 -8 10 -10 10 -5 0 6 -5 17 -10 25
-5 8 -10 11 -10 5z"/>
<path d="M3265 4259 c-4 -6 -5 -12 -2 -15 2 -3 7 2 10 11 7 17 1 20 -8 4z"/>
<path d="M1481 4237 c-13 -21 -12 -21 5 -5 10 10 16 20 13 22 -3 3 -11 -5 -18
-17z"/>
<path d="M3231 4231 c13 -11 26 -18 28 -16 6 6 -27 35 -39 35 -7 0 -2 -9 11
-19z"/>
<path d="M4090 4247 c0 -14 29 -70 30 -57 2 23 28 -52 29 -82 1 -31 21 -39 21
-8 0 27 -43 122 -63 139 -10 7 -17 11 -17 8z"/>
<path d="M1280 4225 c-19 -7 -28 -13 -20 -13 8 0 31 6 50 13 19 7 28 13 20 13
-8 0 -31 -6 -50 -13z"/>
<path d="M2521 4224 c0 -11 3 -14 6 -6 3 7 2 16 -1 19 -3 4 -6 -2 -5 -13z"/>
<path d="M3583 4223 c9 -2 23 -2 30 0 6 3 -1 5 -18 5 -16 0 -22 -2 -12 -5z"/>
<path d="M3496 4211 c-4 -5 3 -7 14 -4 23 6 26 13 6 13 -8 0 -17 -4 -20 -9z"/>
<path d="M1180 4197 c-36 -13 -87 -42 -60 -34 50 14 120 39 120 43 0 7 -24 3
-60 -9z"/>
<path d="M2091 4179 c-6 -18 -11 -37 -10 -43 0 -6 7 7 15 28 8 22 12 41 10 43
-2 2 -9 -10 -15 -28z"/>
<path d="M2791 4194 c0 -11 3 -14 6 -6 3 7 2 16 -1 19 -3 4 -6 -2 -5 -13z"/>
<path d="M2502 4148 c-7 -28 -11 -53 -8 -55 2 -2 9 19 16 47 7 28 10 53 8 55
-3 3 -10 -18 -16 -47z"/>
<path d="M1435 4160 c-9 -16 -13 -30 -11 -30 3 0 12 14 21 30 9 17 13 30 11
30 -3 0 -12 -13 -21 -30z"/>
<path d="M1990 4108 c-79 -203 -162 -491 -175 -605 -6 -57 -9 -62 -38 -72 -16
-6 -32 -9 -35 -7 -2 3 1 47 7 98 21 163 21 166 5 108 -8 -30 -15 -74 -17 -97
-1 -22 -5 -39 -8 -37 -3 2 -5 -9 -3 -24 2 -15 5 -61 8 -102 7 -105 28 -268 34
-252 2 7 -1 48 -6 90 -6 42 -14 105 -17 138 -7 61 -7 62 23 72 l29 10 -3 -127
-2 -126 11 122 c7 67 17 126 22 131 6 5 22 12 37 16 25 6 28 3 34 -31 11 -67
22 -108 23 -92 1 9 -4 40 -9 69 -8 41 -7 56 2 62 10 6 10 8 1 8 -18 0 -17 209
2 335 13 88 80 317 107 368 5 10 7 21 5 24 -3 2 -20 -33 -37 -79z m-93 -360
c-3 -8 -6 -5 -6 6 -1 11 2 17 5 13 3 -3 4 -12 1 -19z m-11 -150 c0 -76 -5
-136 -11 -140 -5 -4 -20 -8 -33 -8 -21 0 -23 3 -17 33 14 70 57 247 60 247 1
0 2 -60 1 -132z"/>
<path d="M1719 4113 c-91 -202 -121 -348 -140 -679 -12 -222 -8 -344 16 -459
8 -42 12 -52 10 -25 -12 109 -16 269 -7 310 10 45 10 45 12 10 1 -19 6 -46 11
-60 7 -21 8 -20 4 10 -21 168 -26 260 -20 365 12 205 40 326 119 514 41 98 37
108 -5 14z"/>
<path d="M3201 4164 c0 -11 3 -14 6 -6 3 7 2 16 -1 19 -3 4 -6 -2 -5 -13z"/>
<path d="M3290 4176 c0 -2 8 -10 18 -17 15 -13 16 -12 3 4 -13 16 -21 21 -21
13z"/>
<path d="M3495 4155 c-38 -13 -67 -23 -63 -24 10 -1 108 25 138 37 46 19 -4
10 -75 -13z"/>
<path d="M2776 4078 c-4 -46 -13 -123 -21 -173 -7 -49 -19 -136 -26 -192 -11
-95 -14 -102 -37 -108 -50 -13 -15 -13 43 0 33 7 79 16 102 19 l41 6 17 -53
c9 -28 47 -113 83 -187 61 -123 83 -188 60 -174 -5 3 -31 -2 -59 -11 -59 -20
-85 -54 -95 -125 -9 -60 21 -261 41 -276 14 -10 145 -28 152 -20 2 2 -29 8
-68 14 -40 6 -75 16 -80 23 -9 16 -29 149 -29 201 0 54 17 109 45 144 19 23
31 28 80 31 32 2 61 0 64 -4 3 -5 17 -17 31 -28 18 -15 21 -15 11 -3 -7 9 -10
22 -6 28 3 5 -1 10 -9 10 -9 0 -16 7 -16 15 0 8 -4 15 -8 15 -16 0 -34 52 -22
60 7 4 0 10 -17 13 -24 5 -35 18 -66 84 -43 92 -87 207 -87 229 0 9 7 14 16
12 14 -3 63 -126 66 -165 1 -7 5 -13 9 -13 13 0 110 -140 104 -150 -3 -6 -1
-10 5 -10 7 0 9 -7 5 -17 -5 -14 -4 -15 6 -6 9 9 16 7 30 -12 23 -28 24 -35 4
-35 -8 0 -15 5 -15 10 0 6 -5 10 -10 10 -6 0 -4 -10 5 -23 8 -13 12 -27 8 -30
-3 -4 0 -7 8 -7 8 0 21 6 28 13 10 10 11 9 6 -4 -5 -12 1 -18 22 -24 15 -3 43
-18 61 -32 l34 -25 -34 -37 -33 -36 33 29 32 30 0 -40 c0 -60 -16 -105 -62
-175 l-42 -64 -7 40 -6 40 -2 -35 c-2 -51 -27 -83 -60 -76 -24 5 -24 4 4 -9
29 -13 31 -12 71 27 63 60 115 176 120 263 3 58 8 73 27 87 12 10 18 18 12 17
-5 0 -19 -6 -29 -14 -11 -8 -25 -15 -30 -15 -6 0 -4 6 6 13 9 7 18 24 20 37 3
24 3 24 46 -14 23 -21 42 -43 42 -48 0 -18 -48 -68 -53 -55 -2 6 7 24 21 40
14 15 20 27 14 27 -7 0 -17 -9 -24 -20 -7 -11 -18 -20 -25 -20 -10 0 -10 -7 1
-32 8 -18 18 -44 24 -58 9 -24 10 -23 38 33 25 52 30 56 41 41 19 -26 16 -107
-7 -166 -25 -66 -19 -74 7 -11 28 66 56 181 47 195 -4 6 -10 39 -14 72 l-7 61
-2 -73 -1 -73 -62 64 c-35 36 -70 68 -79 73 -12 6 -18 25 -20 59 -2 28 -7 52
-10 55 -4 4 -32 128 -53 240 -2 8 -6 22 -9 30 -3 8 -18 59 -33 113 -15 53 -31
97 -36 97 -5 0 -7 4 -4 8 6 10 -32 153 -44 166 -5 5 -4 -9 1 -30 5 -22 14 -65
20 -96 6 -32 15 -58 20 -58 4 0 5 -7 2 -17 -4 -10 -2 -14 4 -10 7 4 19 -27 33
-86 12 -50 25 -102 30 -114 13 -31 73 -324 67 -329 -2 -2 -20 2 -39 10 l-35
15 -8 138 c-9 149 -12 198 -15 198 -1 0 -8 27 -16 60 l-13 60 5 -54 c4 -38 1
-57 -8 -62 -10 -7 -9 -9 3 -9 17 0 20 -17 35 -227 7 -90 6 -93 -14 -93 -44 0
-73 22 -122 92 -53 75 -69 106 -100 196 -13 35 -15 52 -8 52 7 0 5 6 -4 13 -9
6 -18 19 -21 27 -4 10 -6 7 -6 -7 -1 -31 -29 -29 -41 2 -5 14 -26 87 -45 162
-19 75 -37 139 -40 141 -10 10 11 -81 45 -200 l37 -127 -41 -6 c-23 -4 -56 -9
-75 -12 -34 -6 -34 -6 -27 28 3 19 10 77 16 129 5 52 14 120 19 150 12 73 25
230 18 230 -2 0 -7 -37 -11 -82z m402 -804 c17 -5 22 -13 21 -38 -1 -17 -3
-23 -6 -13 -2 9 -8 15 -13 12 -4 -3 -15 6 -24 20 -17 26 -15 28 22 19z m81
-39 c35 -18 46 -44 28 -63 -13 -12 -19 -12 -46 2 -24 13 -31 23 -31 46 0 34 9
36 49 15z"/>
<path d="M3260 3200 c-13 -8 -12 -10 3 -10 9 0 17 5 17 10 0 12 -1 12 -20 0z"/>
<path d="M1032 4133 c-18 -8 -31 -17 -29 -19 4 -5 67 25 67 32 0 6 -1 5 -38
-13z"/>
<path d="M1264 4118 l-29 -33 33 29 c30 28 37 36 29 36 -2 0 -16 -15 -33 -32z"/>
<path d="M3542 4130 c0 -8 6 -31 13 -50 7 -19 13 -28 13 -20 0 8 -6 31 -13 50
-7 19 -13 28 -13 20z"/>
<path d="M3210 4112 c0 -12 3 -12 15 -2 8 7 15 13 15 15 0 1 -7 2 -15 2 -8 0
-15 -7 -15 -15z"/>
<path d="M2052 4041 c-12 -42 -22 -86 -22 -98 0 -11 -6 -33 -14 -49 -22 -43
-54 -216 -62 -326 -4 -54 -10 -98 -13 -98 -7 0 -1 -53 18 -175 5 -33 6 -13 3
58 l-5 107 36 0 c32 0 37 -3 37 -24 0 -13 13 -75 29 -137 17 -62 28 -116 25
-120 -2 -4 0 -10 6 -14 15 -9 12 15 -14 122 -39 156 -41 170 -19 176 15 4 14
5 -4 6 -23 1 -23 1 -23 189 0 179 11 290 40 405 20 79 6 62 -18 -22z m-36
-391 l0 -180 -28 0 c-25 0 -28 3 -28 34 0 66 43 326 54 326 0 0 1 -81 2 -180z"/>
<path d="M902 4075 c0 -16 2 -22 5 -12 2 9 2 23 0 30 -3 6 -5 -1 -5 -18z"/>
<path d="M3221 4074 c0 -11 3 -14 6 -6 3 7 2 16 -1 19 -3 4 -6 -2 -5 -13z"/>
<path d="M1209 4063 c-13 -16 -12 -17 4 -4 9 7 17 15 17 17 0 8 -8 3 -21 -13z"/>
<path d="M2481 4064 c0 -11 3 -14 6 -6 3 7 2 16 -1 19 -3 4 -6 -2 -5 -13z"/>
<path d="M3321 4054 c0 -11 3 -14 6 -6 3 7 2 16 -1 19 -3 4 -6 -2 -5 -13z"/>
<path d="M1376 4045 c-9 -26 -7 -32 5 -12 6 10 9 21 6 23 -2 3 -7 -2 -11 -11z"/>
<path d="M2605 4030 c-4 -17 -5 -34 -2 -36 3 -3 8 9 12 26 4 17 5 34 2 36 -3
3 -8 -9 -12 -26z"/>
<path d="M4167 4040 c-7 -26 3 -100 14 -100 5 0 6 -7 3 -15 -4 -9 0 -15 8 -15
13 0 13 10 3 70 -13 77 -20 91 -28 60z"/>
<path d="M870 4036 c-7 -10 -9 -31 -4 -63 11 -80 24 -94 17 -20 -4 50 -3 71 7
77 7 5 8 10 2 14 -5 3 -15 -1 -22 -8z"/>
<path d="M1176 4033 c-6 -14 -5 -15 5 -6 7 7 10 15 7 18 -3 3 -9 -2 -12 -12z"/>
<path d="M3230 4041 c0 -6 4 -13 10 -16 6 -3 7 1 4 9 -7 18 -14 21 -14 7z"/>
<path d="M3571 4035 c0 -5 10 -44 24 -85 14 -41 22 -60 19 -41 -7 38 -42 142
-43 126z"/>
<path d="M2460 3983 c-7 -26 -23 -75 -35 -108 -77 -208 -97 -266 -93 -270 2
-2 23 47 47 111 24 63 45 113 46 112 2 -2 -8 -46 -20 -98 -13 -52 -28 -153
-35 -225 -6 -71 -14 -155 -18 -185 -4 -30 -7 -74 -7 -97 1 -24 -2 -43 -5 -43
-3 0 -6 -24 -7 -53 l-2 -52 15 55 c8 30 35 114 60 185 65 185 126 385 121 398
-2 6 -20 -45 -40 -114 -43 -145 -136 -411 -136 -389 -1 13 11 98 44 330 3 19
13 70 21 114 9 43 17 105 18 137 0 32 4 59 9 59 4 0 6 3 5 8 -2 10 10 78 23
125 6 22 8 41 6 43 -2 3 -10 -17 -17 -43z"/>
<path d="M4081 3994 c0 -11 3 -14 6 -6 3 7 2 16 -1 19 -3 4 -6 -2 -5 -13z"/>
<path d="M1320 3970 c-6 -11 -8 -20 -6 -20 3 0 10 9 16 20 6 11 8 20 6 20 -3
0 -10 -9 -16 -20z"/>
<path d="M1145 3944 c-27 -13 -39 -21 -26 -18 18 5 22 3 16 -7 -5 -8 5 -3 21
11 16 14 33 28 39 32 14 12 4 9 -50 -18z"/>
<path d="M3776 3957 c3 -10 9 -15 12 -12 3 3 0 11 -7 18 -10 9 -11 8 -5 -6z"/>
<path d="M1316 3868 c-27 -87 -49 -190 -62 -298 -4 -36 -8 -67 -9 -70 -1 -3
-5 -18 -9 -35 -5 -16 -17 -61 -28 -98 -11 -37 -18 -70 -16 -73 3 -2 16 35 30
83 l25 87 7 -99 c4 -55 8 -111 9 -124 3 -33 -38 -60 -103 -68 l-55 -6 36 35
c20 19 40 45 43 59 6 18 5 20 -3 9 -8 -12 -11 -8 -12 20 l-1 35 -7 -30 -7 -30
-13 40 c-6 22 -17 82 -23 133 -6 51 -13 91 -15 88 -8 -8 -9 -81 -2 -96 10 -21
32 -131 26 -136 -2 -2 -19 6 -38 18 -19 13 -55 34 -80 47 -78 41 -164 107
-163 124 1 9 0 17 -1 17 -7 0 -45 -83 -40 -88 3 -3 5 -1 5 4 0 6 6 18 13 28
13 17 20 13 113 -55 54 -41 125 -90 157 -109 31 -19 57 -39 57 -45 0 -17 -41
-51 -75 -63 -28 -10 -28 -11 -5 -10 94 4 109 0 130 -42 11 -22 23 -40 25 -40
3 0 -4 18 -15 41 -12 23 -20 42 -18 43 2 2 19 9 38 16 19 8 39 19 43 24 9 12
3 -79 -13 -194 -15 -111 -21 -273 -10 -290 15 -23 18 -1 24 175 3 88 11 183
16 210 8 38 7 64 -4 110 -42 170 -19 477 51 683 8 24 12 46 10 48 -2 3 -16
-33 -31 -78z"/>
<path d="M3770 3926 c0 -12 29 -76 34 -76 3 0 -2 17 -11 38 -16 38 -23 50 -23
38z"/>
<path d="M1060 3910 c-8 -5 -10 -10 -5 -10 6 0 17 5 25 10 8 5 11 10 5 10 -5
0 -17 -5 -25 -10z"/>
<path d="M1277 3885 c-24 -50 -20 -58 4 -12 11 22 19 41 17 43 -3 2 -12 -12
-21 -31z"/>
<path d="M3850 3895 c-19 -14 -29 -25 -23 -25 7 0 25 11 40 25 36 31 28 31
-17 0z"/>
<path d="M1177 3865 c-24 -50 -20 -58 4 -12 11 22 19 41 17 43 -3 2 -12 -12
-21 -31z"/>
<path d="M2561 3854 c0 -11 3 -14 6 -6 3 7 2 16 -1 19 -3 4 -6 -2 -5 -13z"/>
<path d="M3621 3865 c-2 -19 44 -180 46 -165 2 8 -8 51 -21 95 -14 44 -25 76
-25 70z"/>
<path d="M2608 3844 c-12 -12 -9 -112 3 -120 6 -3 9 -18 6 -32 -3 -14 -1 -51
4 -82 5 -30 16 -118 24 -195 9 -77 21 -157 27 -178 9 -29 9 -43 0 -58 -10 -15
-9 -17 4 -12 14 5 14 3 0 -26 -15 -27 -15 -31 -1 -31 8 0 15 5 15 12 0 6 3 9
6 5 3 -3 -4 -20 -17 -38 l-23 -32 32 23 c17 13 29 27 27 31 -5 7 66 69 78 69
3 0 3 -9 0 -20 -6 -23 3 -25 37 -5 14 8 35 14 48 15 12 0 30 8 40 18 45 42 75
63 93 65 10 1 19 5 19 9 0 9 -41 4 -110 -16 -108 -29 -122 -36 -166 -71 -50
-41 -59 -33 -14 13 35 37 86 65 105 58 7 -2 15 4 18 14 5 18 3 18 -32 3 -29
-12 -103 -46 -133 -61 -18 -9 -61 355 -59 501 1 37 -3 67 -8 67 -5 0 -11 18
-13 41 -2 22 -6 37 -10 33z m322 -634 c-8 -5 -24 -10 -36 -10 -11 0 -35 -11
-54 -25 -38 -28 -47 -27 -31 4 12 22 57 39 106 40 23 1 26 -2 15 -9z"/>
<path d="M3262 3835 c0 -11 4 -31 8 -45 6 -20 8 -21 8 -5 0 11 -4 31 -8 45 -6
20 -8 21 -8 5z"/>
<path d="M3850 3834 c0 -6 7 -19 16 -30 14 -18 14 -18 3 6 -14 31 -19 36 -19
24z"/>
<path d="M1226 3758 c-40 -112 -65 -233 -71 -338 l-4 -95 14 115 c15 127 43
248 75 329 11 30 19 55 17 58 -3 2 -16 -29 -31 -69z"/>
<path d="M2541 3784 c0 -11 3 -14 6 -6 3 7 2 16 -1 19 -3 4 -6 -2 -5 -13z"/>
<path d="M3890 3760 c21 -40 81 -132 85 -128 7 9 43 98 39 98 -3 0 -13 -19
-24 -42 l-18 -41 -41 63 c-45 69 -61 89 -41 50z"/>
<path d="M924 3713 c1 -25 5 -38 10 -33 5 6 5 22 -1 42 l-10 33 1 -42z"/>
<path d="M1371 3734 c0 -11 3 -14 6 -6 3 7 2 16 -1 19 -3 4 -6 -2 -5 -13z"/>
<path d="M3830 3741 c0 -5 5 -13 10 -16 6 -3 10 -2 10 4 0 5 -4 13 -10 16 -5
3 -10 2 -10 -4z"/>
<path d="M3851 3694 c0 -11 3 -14 6 -6 3 7 2 16 -1 19 -3 4 -6 -2 -5 -13z"/>
<path d="M3280 3637 c-3 -31 -2 -57 3 -57 4 0 8 -48 9 -107 l2 -108 3 103 c3
69 7 102 15 102 7 0 4 6 -5 13 -10 7 -17 30 -19 62 l-3 50 -5 -58z"/>
<path d="M1361 3664 c0 -11 3 -14 6 -6 3 7 2 16 -1 19 -3 4 -6 -2 -5 -13z"/>
<path d="M3676 3638 c19 -61 43 -122 43 -112 1 14 -40 134 -46 134 -2 0 -1
-10 3 -22z"/>
<path d="M3361 3603 c25 -58 107 -183 121 -183 5 0 -6 22 -26 49 -20 27 -36
52 -36 55 0 4 14 0 30 -9 17 -9 30 -13 30 -10 0 2 -18 14 -40 25 -29 15 -47
34 -65 70 -32 63 -41 65 -14 3z"/>
<path d="M3048 3633 c7 -3 16 -2 19 1 4 3 -2 6 -13 5 -11 0 -14 -3 -6 -6z"/>
<path d="M3871 3626 c-2 -21 47 -169 104 -317 14 -36 25 -71 25 -77 0 -7 5
-12 11 -12 6 0 9 4 7 8 -5 13 -84 229 -117 322 -16 47 -30 81 -30 76z"/>
<path d="M4008 3583 c17 -21 43 -49 58 -63 15 -14 3 3 -26 38 -60 69 -78 83
-32 25z"/>
<path d="M1342 3531 c-7 -40 -10 -76 -7 -79 3 -3 5 2 5 11 0 8 5 17 11 19 6 2
9 27 7 63 l-3 60 -13 -74z"/>
<path d="M2302 3528 c-12 -33 -21 -63 -18 -65 2 -2 14 24 26 57 12 33 21 63
18 65 -2 3 -14 -23 -26 -57z"/>
<path d="M2707 3546 c-4 -27 -6 -72 -6 -100 1 -47 2 -45 10 24 11 88 8 150 -4
76z"/>
<path d="M4142 3570 c0 -14 2 -19 5 -12 2 6 2 18 0 25 -3 6 -5 1 -5 -13z"/>
<path d="M1102 3560 c0 -14 2 -19 5 -12 2 6 2 18 0 25 -3 6 -5 1 -5 -13z"/>
<path d="M3330 3570 c0 -6 7 -13 15 -17 24 -9 27 1 5 15 -13 8 -20 8 -20 2z"/>
<path d="M4230 3515 c0 -32 3 -55 7 -51 7 7 5 98 -3 105 -2 2 -4 -22 -4 -54z"/>
<path d="M3370 3490 c6 -11 13 -20 16 -20 2 0 0 9 -6 20 -6 11 -13 20 -16 20
-2 0 0 -9 6 -20z"/>
<path d="M3726 3480 c4 -19 13 -46 21 -60 l14 -25 -7 25 c-4 14 -13 41 -20 60
l-14 35 6 -35z"/>
<path d="M3955 3485 c34 -29 135 -88 141 -83 2 2 -36 27 -84 56 -48 29 -73 41
-57 27z"/>
<path d="M4161 3473 c-1 -27 -18 -31 -23 -5 -2 12 -6 13 -11 5 -5 -8 11 -25
48 -49 60 -40 71 -60 27 -51 -16 3 -32 7 -38 8 -25 5 -43 -2 -38 -15 3 -8 1
-17 -5 -21 -6 -3 -11 0 -11 7 -1 7 -7 -2 -15 -21 -19 -42 -19 -50 -2 -27 25
34 29 -9 6 -66 -11 -28 -18 -52 -16 -55 6 -5 45 105 53 149 6 35 8 37 38 32
55 -10 56 -11 56 -65 0 -75 12 -53 16 31 3 53 0 70 -10 70 -24 0 -65 40 -69
68 -3 22 -4 23 -6 5z"/>
<path d="M1350 3419 c-1 -31 -21 -74 -31 -65 -2 3 -6 -32 -7 -77 -4 -98 4
-100 13 -3 3 37 11 78 17 90 12 20 12 20 19 -9 5 -18 6 -7 3 29 -4 66 -14 89
-14 35z"/>
<path d="M2257 3403 c-21 -48 -40 -128 -35 -144 2 -6 16 31 30 82 15 52 25 95
24 96 -2 2 -10 -14 -19 -34z"/>
<path d="M1322 3410 c0 -14 2 -19 5 -12 2 6 2 18 0 25 -3 6 -5 1 -5 -13z"/>
<path d="M3422 3398 c12 -37 28 -59 28 -40 0 14 -28 72 -35 72 -2 0 1 -15 7
-32z"/>
<path d="M1705 3403 c-10 -24 -19 -360 -10 -351 4 4 7 45 6 90 -1 46 3 125 9
177 10 93 9 118 -5 84z"/>
<path d="M3486 3398 c4 -5 9 -7 12 -3 3 3 22 -9 41 -27 l36 -33 -33 36 c-18
20 -39 36 -47 36 -8 0 -12 -4 -9 -9z"/>
<path d="M791 3384 c0 -11 3 -14 6 -6 3 7 2 16 -1 19 -3 4 -6 -2 -5 -13z"/>
<path d="M4105 3390 c-3 -6 1 -7 9 -4 18 7 21 14 7 14 -6 0 -13 -4 -16 -10z"/>
<path d="M2697 3383 c-10 -9 -9 -33 1 -33 4 0 8 9 9 20 2 21 0 24 -10 13z"/>
<path d="M4279 3358 c12 -11 25 -18 28 -15 9 9 -5 24 -28 30 l-21 6 21 -21z"/>
<path d="M766 3314 c-9 -26 -16 -52 -15 -58 0 -6 9 13 20 43 10 30 17 56 15
58 -2 2 -11 -17 -20 -43z"/>
<path d="M3541 3335 c21 -32 78 -94 162 -177 42 -43 73 -78 68 -78 -6 0 -47
28 -92 62 -76 57 -105 85 -184 173 -20 23 -23 24 -11 5 9 -13 17 -40 17 -60 2
-28 3 -30 6 -9 4 26 5 25 61 -30 65 -65 148 -124 242 -171 36 -18 66 -33 68
-35 3 -3 -15 -85 -24 -110 -5 -12 -3 -16 6 -13 7 2 14 12 16 22 13 91 27 156
33 156 4 0 16 -7 27 -15 40 -30 47 -14 11 23 -35 36 -37 42 -33 83 5 38 4 40
-3 11 -5 -18 -12 -36 -15 -39 -3 -4 6 -19 21 -35 40 -42 17 -34 -81 27 -48 30
-90 55 -93 55 -8 0 77 -60 117 -82 21 -12 30 -25 30 -43 0 -31 -7 -31 -66 0
-26 14 -43 25 -38 25 5 0 -27 35 -71 78 -44 42 -104 104 -134 137 -29 33 -47
51 -40 40z"/>
<path d="M3780 3321 c0 -6 4 -13 10 -16 6 -3 7 1 4 9 -7 18 -14 21 -14 7z"/>
<path d="M881 3313 c-1 -6 -4 -20 -7 -30 -5 -17 -5 -17 6 0 6 10 9 23 6 30 -3
9 -5 9 -5 0z"/>
<path d="M1350 3313 c0 -5 7 -17 15 -27 14 -19 15 -19 15 7 0 17 -5 27 -15 27
-8 0 -15 -3 -15 -7z"/>
<path d="M4263 3255 c0 -33 2 -45 4 -27 2 18 2 45 0 60 -2 15 -4 0 -4 -33z"/>
<path d="M2968 3293 c6 -2 18 -2 25 0 6 3 1 5 -13 5 -14 0 -19 -2 -12 -5z"/>
<path d="M1921 3274 c0 -11 3 -14 6 -6 3 7 2 16 -1 19 -3 4 -6 -2 -5 -13z"/>
<path d="M3910 3260 c6 -11 13 -20 16 -20 2 0 0 9 -6 20 -6 11 -13 20 -16 20
-2 0 0 -9 6 -20z"/>
<path d="M3679 3221 c24 -23 46 -39 49 -36 6 5 -11 20 -63 56 -19 13 -13 5 14
-20z"/>
<path d="M3812 3253 c25 -51 44 -83 50 -83 3 0 -5 20 -19 45 -13 25 -27 45
-29 45 -3 0 -4 -3 -2 -7z"/>
<path d="M1375 3210 c7 -53 93 -239 127 -273 13 -14 24 -31 26 -38 2 -8 10
-20 18 -27 9 -8 10 -8 4 0 -16 19 -11 32 6 17 9 -8 -6 20 -34 61 -27 41 -67
113 -87 160 -20 47 -43 99 -51 115 l-15 30 6 -45z"/>
<path d="M1963 3226 c5 -14 3 -17 -8 -12 -8 3 -15 1 -15 -4 0 -6 7 -10 15 -10
8 0 15 -8 16 -17 0 -14 2 -15 6 -3 3 8 9 17 13 20 3 3 -3 14 -14 24 -18 18
-19 18 -13 2z"/>
<path d="M3940 3226 c0 -2 8 -10 18 -17 15 -13 16 -12 3 4 -13 16 -21 21 -21
13z"/>
<path d="M3495 3201 c-3 -5 -1 -12 5 -16 5 -3 10 1 10 9 0 18 -6 21 -15 7z"/>
<path d="M841 3184 c0 -11 3 -14 6 -6 3 7 2 16 -1 19 -3 4 -6 -2 -5 -13z"/>
<path d="M2201 3184 c0 -11 3 -14 6 -6 3 7 2 16 -1 19 -3 4 -6 -2 -5 -13z"/>
<path d="M731 3174 c0 -11 3 -14 6 -6 3 7 2 16 -1 19 -3 4 -6 -2 -5 -13z"/>
<path d="M4034 3182 c4 -7 2 -19 -4 -27 -9 -11 -9 -15 -1 -15 6 0 11 5 11 12
0 9 3 9 11 1 7 -7 6 -22 -5 -49 -14 -33 -14 -36 -1 -20 8 11 15 23 15 28 0 4
24 -8 53 -28 l52 -37 -43 39 c-24 21 -44 49 -45 61 -1 12 -3 20 -6 18 -2 -3
-13 3 -24 12 -11 10 -17 12 -13 5z"/>
<path d="M1322 3150 c0 -19 2 -27 5 -17 2 9 2 25 0 35 -3 9 -5 1 -5 -18z"/>
<path d="M1631 3164 c0 -11 3 -14 6 -6 3 7 2 16 -1 19 -3 4 -6 -2 -5 -13z"/>
<path d="M1781 3144 c-1 -25 -15 -45 -67 -94 -39 -36 -72 -59 -80 -56 -8 3
-14 -1 -14 -9 0 -8 4 -15 9 -15 20 0 22 -43 5 -110 -18 -68 -19 -69 -38 -52
-12 10 -8 2 8 -20 16 -21 31 -38 33 -38 3 0 1 6 -5 13 -14 17 15 137 33 137
15 0 79 -145 112 -255 13 -44 29 -90 35 -102 23 -47 -1 -32 -37 23 -45 67 -68
126 -89 220 -9 45 -15 58 -15 38 -1 -46 36 -160 74 -229 45 -80 145 -175 185
-175 8 0 -6 12 -31 26 -54 30 -56 34 -98 179 -18 61 -54 155 -81 210 -27 55
-46 103 -42 107 4 4 29 -24 56 -62 47 -65 71 -87 47 -42 -24 46 -11 118 31
162 12 13 22 28 21 31 -1 4 8 6 21 5 22 -1 24 -6 28 -71 4 -60 13 -87 59 -180
29 -61 53 -116 52 -122 0 -7 1 -13 4 -13 14 0 124 65 139 81 35 39 27 205 -12
267 -8 12 -12 28 -8 34 5 7 3 8 -6 3 -9 -5 -10 -2 -6 13 4 12 2 23 -5 28 -8 4
-9 3 -5 -4 4 -7 4 -16 1 -22 -7 -11 -65 15 -77 34 -11 16 -86 11 -107 -8 -21
-19 -35 -21 -25 -3 4 7 3 9 -2 4 -5 -5 -9 -14 -9 -19 0 -6 -6 -13 -14 -16 -9
-3 -11 0 -6 8 6 9 3 9 -13 1 -11 -6 -23 -16 -25 -23 -9 -22 -28 14 -25 47 4
36 52 61 68 35 7 -10 10 -11 10 -2 0 8 18 12 55 12 45 0 64 -6 109 -35 l54
-34 0 26 c0 20 -9 29 -43 44 -60 27 -152 33 -205 14 -23 -8 -44 -15 -46 -15
-1 0 -5 12 -7 28 -4 26 -4 26 -6 -4z m-1 -90 c0 -14 -4 -22 -10 -19 -6 4 -8
-7 -5 -27 4 -24 3 -28 -3 -13 -8 17 -10 15 -21 -18 -14 -41 -26 -47 -36 -17
-6 20 4 45 37 93 24 34 38 35 38 1z m229 22 c-11 -9 -90 -16 -84 -6 3 5 25 10
47 10 23 0 39 -2 37 -4z m54 -43 c43 -22 69 -91 71 -190 0 -45 -2 -84 -5 -88
-12 -12 -59 18 -60 39 -1 17 -2 18 -6 4 -8 -32 -23 -19 -53 45 -20 41 -30 78
-31 112 0 42 -2 47 -11 28 -8 -16 -6 -41 6 -94 17 -74 45 -119 75 -119 9 -1
31 -9 49 -19 l34 -17 -24 -15 c-12 -8 -36 -20 -52 -28 -27 -11 -31 -10 -48 11
-10 13 -37 61 -59 107 -37 74 -42 91 -43 160 l-1 76 35 6 c42 8 85 2 123 -18z
m-276 -35 c-3 -8 -6 -5 -6 6 -1 11 2 17 5 13 3 -3 4 -12 1 -19z m-97 5 c-1
-18 -30 -44 -41 -38 -8 6 -5 13 12 26 27 21 29 22 29 12z m66 -101 c-13 -12
-17 8 -10 40 l9 33 3 -33 c2 -19 1 -36 -2 -40z"/>
<path d="M1715 2990 c-4 -12 -5 -24 -2 -27 3 -2 8 5 12 17 4 12 5 24 2 27 -3
2 -8 -5 -12 -17z"/>
<path d="M2000 3027 c0 -2 15 -14 33 -27 20 -15 27 -17 18 -6 -13 16 -51 41
-51 33z"/>
<path d="M2002 2954 c1 -38 1 -39 10 -11 7 19 7 32 0 39 -7 7 -10 -3 -10 -28z"/>
<path d="M2026 2928 c-8 -60 -4 -81 19 -95 31 -19 35 -16 35 22 0 31 -33 115
-45 115 -2 0 -6 -19 -9 -42z"/>
<path d="M2094 2954 c-8 -3 -8 -23 0 -69 14 -83 31 -99 21 -20 -4 33 -8 68 -8
78 -1 9 -1 17 -2 16 0 0 -5 -3 -11 -5z"/>
<path d="M3010 3160 c-9 -6 -10 -10 -3 -10 6 0 15 5 18 10 8 12 4 12 -15 0z"/>
<path d="M1251 3144 c0 -11 3 -14 6 -6 3 7 2 16 -1 19 -3 4 -6 -2 -5 -13z"/>
<path d="M2190 3145 c0 -8 2 -15 4 -15 2 0 6 7 10 15 3 8 1 15 -4 15 -6 0 -10
-7 -10 -15z"/>
<path d="M3492 3135 c0 -16 2 -22 5 -12 2 9 2 23 0 30 -3 6 -5 -1 -5 -18z"/>
<path d="M715 3105 c-3 -26 -4 -49 -2 -51 3 -3 8 16 12 41 3 26 4 49 2 51 -3
3 -8 -16 -12 -41z"/>
<path d="M3018 3133 c-31 -35 -38 -124 -17 -190 20 -62 92 -87 102 -36 5 26 4
26 -9 9 -12 -17 -16 -17 -31 -5 -11 9 -14 10 -9 2 11 -20 -9 -15 -27 5 -23 26
-24 177 -1 210 18 26 13 29 -8 5z"/>
<path d="M812 3040 c-13 -54 -22 -105 -19 -112 2 -7 8 12 13 42 l9 55 6 -90 6
-90 0 105 c1 58 4 124 8 148 13 75 1 45 -23 -58z"/>
<path d="M1641 3124 c0 -11 3 -14 6 -6 3 7 2 16 -1 19 -3 4 -6 -2 -5 -13z"/>
<path d="M2725 3120 c-8 -13 5 -13 25 0 13 8 13 10 -2 10 -9 0 -20 -4 -23 -10z"/>
<path d="M3160 3122 c0 -6 5 -14 10 -17 19 -12 11 -71 -14 -98 -23 -25 -23
-25 -3 -31 19 -5 19 -6 3 -30 -9 -15 -12 -26 -6 -26 6 0 16 11 22 25 6 14 15
25 19 25 13 0 39 -43 32 -54 -4 -8 -2 -8 6 0 17 16 4 62 -17 60 -13 -1 -16 6
-13 34 1 19 8 41 13 48 7 8 7 12 -1 12 -6 0 -11 6 -11 13 0 8 -9 22 -20 32
-11 10 -20 13 -20 7z m16 -128 c-4 -9 -9 -15 -11 -12 -3 3 -3 13 1 22 4 9 9
15 11 12 3 -3 3 -13 -1 -22z"/>
<path d="M1240 3106 c0 -14 -27 -236 -34 -283 -2 -13 0 -23 3 -23 4 0 16 72
27 160 11 88 17 160 12 160 -4 0 -8 -6 -8 -14z"/>
<path d="M1550 3100 c6 -11 13 -20 16 -20 2 0 0 9 -6 20 -6 11 -13 20 -16 20
-2 0 0 -9 6 -20z"/>
<path d="M4240 3022 c0 -98 7 -175 36 -384 12 -93 66 -301 118 -460 53 -161
122 -326 132 -315 3 3 -1 18 -10 34 -55 108 -141 373 -197 613 -34 144 -40
190 -49 360 -5 107 -10 207 -10 223 0 15 -4 27 -10 27 -6 0 -10 -39 -10 -98z"/>
<path d="M1334 3073 c0 -24 4 -43 9 -43 9 0 8 39 -3 65 -5 14 -7 8 -6 -22z"/>
<path d="M1306 3087 c3 -10 9 -15 12 -12 3 3 0 11 -7 18 -10 9 -11 8 -5 -6z"/>
<path d="M3045 3060 c-3 -4 5 -6 17 -2 20 5 21 3 10 -10 -7 -9 -14 -33 -16
-55 -3 -37 -1 -40 20 -37 33 3 42 11 49 44 9 41 -8 67 -44 68 -17 0 -33 -3
-36 -8z m52 -50 c-2 -29 -11 -38 -21 -22 -7 12 4 52 15 52 4 0 7 -13 6 -30z"/>
<path d="M1340 3000 c0 -11 5 -20 10 -20 6 0 10 9 10 20 0 11 -4 20 -10 20 -5
0 -10 -9 -10 -20z"/>
<path d="M3995 3009 c-4 -6 -5 -12 -2 -15 2 -3 7 2 10 11 7 17 1 20 -8 4z"/>
<path d="M3025 3000 c-3 -5 -1 -10 4 -10 6 0 11 5 11 10 0 6 -2 10 -4 10 -3 0
-8 -4 -11 -10z"/>
<path d="M3346 2963 c-6 -14 -5 -15 5 -6 7 7 10 15 7 18 -3 3 -9 -2 -12 -12z"/>
<path d="M3516 2904 c-15 -37 -34 -77 -42 -88 -17 -24 -18 -36 -3 -36 5 0 8 4
5 9 -4 5 -2 11 3 13 10 3 73 159 67 165 -2 2 -16 -26 -30 -63z"/>
<path d="M3910 2922 c0 -4 10 -13 23 -21 22 -14 22 -14 3 8 -20 22 -26 25 -26
13z"/>
<path d="M3756 2912 c-3 -5 -15 -35 -27 -68 -12 -32 -25 -64 -30 -70 -5 -6 -4
-11 4 -11 8 0 14 5 14 11 0 6 12 41 26 79 23 59 28 83 13 59z"/>
<path d="M770 2835 c-7 -41 -11 -77 -8 -80 2 -2 10 30 17 71 7 42 11 78 8 80
-2 2 -10 -30 -17 -71z"/>
<path d="M3981 2863 c-1 -17 -4 -40 -7 -50 -5 -15 -4 -16 6 -3 9 12 11 4 7
-38 -2 -31 -1 -48 4 -40 6 8 9 -1 9 -27 0 -99 19 -386 30 -445 27 -151 90
-366 125 -426 9 -16 13 -20 9 -9 -80 232 -127 436 -138 600 -3 50 -4 86 -2 80
3 -5 17 -55 32 -109 29 -106 69 -214 59 -161 -3 20 7 6 32 -41 73 -137 82
-128 17 15 -88 197 -129 334 -158 526 -13 88 -24 146 -25 128z"/>
<path d="M3840 2871 c0 -47 -125 -254 -190 -316 l-32 -30 21 42 c26 52 72 175
68 180 -2 2 -16 -30 -32 -69 -48 -126 -71 -161 -143 -225 -38 -34 -84 -86
-101 -115 -30 -50 -30 -51 -4 -18 61 77 117 131 130 126 8 -3 11 -2 8 3 -3 5
-1 12 4 16 11 6 18 -38 26 -175 12 -192 41 -347 106 -575 27 -94 29 -99 35
-93 4 5 -2 32 -56 233 -44 162 -77 390 -82 556 l-1 65 48 45 c78 71 154 184
195 289 15 37 18 56 10 64 -7 7 -10 6 -10 -3z"/>
<path d="M1365 2835 c4 -22 16 -58 26 -80 11 -22 16 -31 13 -20 -3 11 -13 45
-21 75 -18 67 -27 80 -18 25z"/>
<path d="M1581 2853 c7 -12 15 -20 18 -17 3 2 -3 12 -13 22 -17 16 -18 16 -5
-5z"/>
<path d="M3110 2826 c0 -2 8 -10 18 -17 15 -13 16 -12 3 4 -13 16 -21 21 -21
13z"/>
<path d="M3361 2769 c-19 -32 -56 -83 -83 -113 -29 -33 -44 -57 -38 -61 15 -9
113 51 153 94 35 37 19 32 -26 -8 -34 -31 -109 -81 -120 -81 -5 0 16 27 46 60
48 54 114 156 105 165 -1 1 -18 -23 -37 -56z"/>
<path d="M814 2515 c0 -154 2 -216 3 -137 2 79 2 205 0 280 -1 75 -3 11 -3
-143z"/>
<path d="M1193 2705 c-7 -49 -17 -130 -22 -180 -30 -271 -64 -434 -136 -649
-42 -125 -128 -318 -158 -355 -10 -12 -5 -13 35 -9 56 6 139 46 187 88 19 17
36 28 39 25 8 -8 -68 -95 -118 -133 -26 -21 -60 -47 -76 -59 l-29 -23 35 20
c87 49 220 186 204 211 -3 5 -1 9 4 9 13 0 50 96 67 175 27 125 39 397 28 650
l-10 230 -2 -345 c-4 -464 -12 -533 -29 -245 -7 121 -14 254 -16 295 -2 41 -1
-31 2 -160 2 -129 5 -265 6 -303 0 -37 4 -67 9 -67 4 0 7 -5 7 -11 0 -5 -4 -8
-8 -5 -4 2 -9 -12 -10 -32 -8 -121 -77 -219 -197 -280 -23 -11 -57 -23 -76
-27 l-35 -6 63 127 c127 261 190 517 238 973 18 164 16 222 -2 86z"/>
<path d="M3434 2748 l-19 -23 23 19 c21 18 27 26 19 26 -2 0 -12 -10 -23 -22z"/>
<path d="M3935 2697 c-27 -57 -38 -67 -122 -122 -50 -33 -91 -67 -91 -75 0 -9
2 -10 4 -3 3 6 29 26 57 44 96 60 143 106 166 160 31 72 22 69 -14 -4z"/>
<path d="M3636 2676 c-68 -99 -131 -149 -224 -179 -46 -15 -95 -27 -110 -27
-15 0 -34 -5 -42 -10 -12 -8 -12 -10 5 -10 41 0 154 29 195 50 23 12 44 19 47
16 10 -10 -94 -152 -157 -215 -130 -129 -389 -275 -685 -386 l-148 -55 -171
106 c-278 173 -385 263 -436 365 l-29 57 57 6 c61 7 69 10 92 40 15 19 14 19
-12 2 -15 -10 -35 -16 -45 -15 -10 1 -26 -1 -36 -6 -33 -14 -132 0 -188 28
-67 33 -149 111 -200 190 -41 64 -54 67 -16 5 30 -50 89 -146 112 -183 20 -30
20 -30 0 -15 -59 44 -132 115 -167 162 -53 71 -55 71 -24 10 15 -29 42 -69 60
-90 l34 -37 -29 -125 c-15 -69 -41 -163 -57 -210 -30 -89 -144 -345 -192 -433
-98 -182 -247 -473 -272 -532 -45 -107 -108 -294 -107 -318 0 -12 7 3 15 33
29 107 176 444 245 562 49 82 244 476 289 582 55 129 116 310 125 369 4 26 9
47 11 47 2 0 25 -16 51 -36 38 -29 81 -54 120 -69 2 -1 -6 -25 -17 -53 -11
-29 -18 -52 -15 -52 7 0 42 84 50 119 3 17 11 33 16 37 17 10 70 -7 75 -24 14
-44 46 -103 74 -135 l31 -36 -40 -118 c-21 -65 -62 -183 -89 -263 -134 -386
-226 -712 -236 -835 -5 -62 -4 -59 13 35 24 131 98 391 144 501 19 46 40 101
46 122 7 20 16 37 21 37 12 0 1 -64 -22 -130 -47 -135 -57 -170 -67 -255 -6
-49 -11 -161 -11 -248 0 -147 1 -157 17 -148 16 8 17 27 15 193 -4 213 12 327
58 426 72 154 131 199 305 230 l110 20 -32 -26 c-77 -65 -189 -248 -199 -326
-2 -16 -11 -52 -19 -80 -30 -106 -45 -187 -44 -238 l1 -53 9 43 c4 23 11 47
15 53 4 6 2 14 -4 18 -6 4 -7 12 -3 19 8 13 33 -35 47 -93 l7 -30 7 40 c3 22
14 54 23 72 9 18 17 54 17 82 0 27 4 53 10 56 5 3 14 25 20 48 7 23 22 64 36
91 13 28 24 55 24 61 0 7 9 20 20 30 11 10 33 41 49 70 25 44 75 95 153 153
25 19 80 34 71 19 -10 -19 -81 -104 -165 -200 -43 -49 -78 -94 -78 -100 0 -7
11 1 23 18 12 16 54 66 92 110 80 91 142 167 167 204 12 17 27 26 47 27 l31 2
-33 -46 c-44 -63 -316 -334 -328 -326 -5 3 -24 -25 -41 -63 -35 -74 -50 -194
-29 -230 8 -14 9 -5 5 38 -12 108 37 203 163 317 77 69 81 71 85 47 4 -18 -8
-43 -41 -92 -53 -79 -161 -288 -161 -312 0 -9 24 31 53 89 45 89 240 418 297
500 9 14 24 39 32 55 12 22 30 35 68 48 29 10 54 16 56 14 3 -2 -4 -28 -15
-58 -22 -57 -21 -78 1 -33 7 15 19 30 27 32 11 4 13 -17 9 -117 -3 -80 -1
-118 6 -111 5 5 10 75 10 160 l1 149 85 33 c92 36 378 202 474 276 41 32 57
40 52 26 -18 -42 -28 -207 -22 -356 l5 -157 40 -78 c22 -43 68 -119 103 -169
83 -120 174 -221 137 -153 -7 15 -9 46 -5 90 5 42 3 69 -2 69 -5 0 -13 30 -17
68 -4 37 -17 121 -30 187 -13 66 -26 147 -30 180 -15 136 -24 197 -29 203 -3
3 -6 -53 -6 -124 0 -124 -20 -324 -39 -391 -5 -17 -7 -34 -3 -37 3 -3 0 -6 -6
-6 -16 0 -59 88 -77 157 -11 43 -15 107 -14 248 1 170 4 198 26 267 13 43 28
80 34 83 14 9 82 103 114 160 16 28 52 75 80 107 44 49 103 138 92 138 -2 0
-20 -24 -41 -54z m-1886 -251 c16 -5 19 -12 14 -28 -10 -32 -10 -32 -48 -3
-31 24 -96 105 -96 120 0 4 24 -14 54 -38 30 -24 64 -47 76 -51z m242 -376
c-56 -215 -104 -364 -129 -402 -13 -22 -26 -37 -28 -35 -2 2 5 48 16 103 11
55 26 137 33 181 8 45 31 134 51 199 l37 118 24 -25 25 -25 -29 -114z m28 -22
c-11 -63 -20 -154 -20 -201 0 -56 -4 -86 -11 -86 -6 0 -24 -9 -40 -21 -28 -20
-29 -20 -29 -1 0 11 9 48 19 83 17 53 50 183 86 334 4 17 9 25 12 19 2 -6 -5
-63 -17 -127z m240 -27 c74 -46 139 -87 144 -92 6 -4 2 -16 -9 -28 -10 -11
-15 -20 -10 -20 4 0 14 8 21 18 12 16 14 16 41 0 33 -20 37 -29 21 -51 -15
-19 -66 -24 -120 -13 -26 6 -64 1 -140 -18 -57 -14 -124 -28 -147 -32 l-44 -7
6 129 c3 71 11 157 18 191 l11 63 37 -28 c20 -16 97 -66 171 -112z m84 -196
c9 -3 16 -9 16 -13 0 -4 -29 -31 -64 -59 -40 -32 -75 -70 -92 -101 -25 -48
-53 -69 -73 -57 -4 3 -4 28 2 57 7 38 19 60 46 86 l36 35 6 -29 c5 -28 5 -28
12 9 12 57 63 90 111 72z m1194 -235 c26 -133 36 -232 20 -204 -6 11 -37 54
-69 96 -37 48 -57 84 -54 95 14 60 57 221 62 234 4 8 10 -15 14 -51 4 -36 16
-112 27 -170z m-1064 149 c-21 -37 -87 -138 -90 -138 -2 0 -4 11 -4 24 0 15
18 44 46 75 45 50 62 63 48 39z m-357 -113 c-3 -19 -1 -37 4 -41 10 -6 2 -67
-13 -96 -5 -10 -15 -18 -23 -18 -10 0 -15 -16 -17 -57 -3 -50 -6 -58 -24 -61
-36 -5 -46 74 -17 135 15 33 17 34 24 14 12 -31 18 -25 12 12 -3 22 3 50 21
90 28 65 41 73 33 22z m-105 -333 c1 -75 1 -75 7 -22 6 53 6 53 14 21 11 -53
9 -68 -17 -97 l-23 -28 -13 24 c-7 12 -12 41 -12 63 1 49 23 128 34 121 4 -3
9 -40 10 -82z m-275 -264 c-3 -8 -6 -5 -6 6 -1 11 2 17 5 13 3 -3 4 -12 1 -19z
m6 -33 c4 -8 2 -17 -3 -20 -6 -4 -10 3 -10 14 0 25 6 27 13 6z"/>
<path d="M2354 1888 l-19 -23 23 19 c21 18 27 26 19 26 -2 0 -12 -10 -23 -22z"/>
<path d="M2414 1838 l-19 -23 23 19 c21 18 27 26 19 26 -2 0 -12 -10 -23 -22z"/>
<path d="M2183 1655 c0 -22 2 -30 4 -17 2 12 2 30 0 40 -3 9 -5 -1 -4 -23z"/>
<path d="M1982 1260 c0 -14 2 -19 5 -12 2 6 2 18 0 25 -3 6 -5 1 -5 -13z"/>
<path d="M3431 2697 c-13 -21 -12 -21 5 -5 10 10 16 20 13 22 -3 3 -11 -5 -18
-17z"/>
<path d="M3380 2618 c-19 -28 -57 -71 -85 -96 -36 -32 -40 -38 -15 -21 40 26
39 26 99 103 24 31 42 58 40 61 -3 2 -20 -19 -39 -47z"/>
<path d="M732 2530 c0 -19 2 -27 5 -17 2 9 2 25 0 35 -3 9 -5 1 -5 -18z"/>
<path d="M3220 2469 c0 -5 5 -7 10 -4 6 3 10 8 10 11 0 2 -4 4 -10 4 -5 0 -10
-5 -10 -11z"/>
<path d="M712 2375 c-7 -55 -15 -113 -18 -130 -3 -24 -3 -26 5 -10 11 27 34
195 29 220 -2 11 -9 -25 -16 -80z"/>
<path d="M3733 2425 c0 -22 2 -30 4 -17 2 12 2 30 0 40 -3 9 -5 -1 -4 -23z"/>
<path d="M660 2370 c0 -5 5 -10 11 -10 5 0 7 5 4 10 -3 6 -8 10 -11 10 -2 0
-4 -4 -4 -10z"/>
<path d="M2517 2369 c93 -13 139 -32 157 -67 14 -28 14 -73 -1 -95 -4 -7 0 -4
10 6 21 24 22 75 1 106 -24 33 -70 49 -160 55 l-79 5 72 -10z"/>
<path d="M2348 2343 c-16 -38 -18 -39 -28 -23 -6 9 -3 18 8 27 15 12 14 13 -5
3 -24 -11 -29 -25 -13 -35 5 -3 16 -20 25 -38 8 -18 27 -45 41 -62 l25 -30
-24 40 c-13 22 -26 48 -30 58 -9 25 9 66 35 77 l23 9 -23 0 c-15 1 -26 -8 -34
-26z"/>
<path d="M1662 2268 c38 -35 45 -47 37 -63 -4 -11 -25 -63 -45 -115 -20 -52
-69 -149 -108 -215 -39 -66 -78 -137 -88 -157 -9 -21 -21 -38 -26 -38 -6 0
-28 -30 -51 -67 -23 -38 -65 -104 -93 -148 -59 -93 -193 -353 -185 -361 3 -3
37 59 76 138 39 78 69 133 67 120 -2 -12 0 -20 5 -16 5 3 9 9 9 14 0 4 40 73
89 152 49 78 100 160 112 181 47 76 44 51 -25 -187 -55 -189 -71 -402 -41
-531 l14 -60 -7 70 c-9 95 -6 244 8 329 23 144 117 437 196 611 23 51 115 309
111 310 -1 1 -24 18 -52 39 l-50 38 47 -44z"/>
<path d="M3380 2259 c-7 -11 -10 -23 -7 -25 2 -2 9 7 15 21 14 30 7 33 -8 4z"/>
<path d="M796 2098 c-9 -148 -60 -464 -92 -565 -5 -16 -4 -16 5 -1 16 24 58
207 75 323 15 105 32 365 24 365 -3 0 -8 -55 -12 -122z"/>
<path d="M4150 2105 c0 -5 5 -17 10 -25 5 -8 10 -10 10 -5 0 6 -5 17 -10 25
-5 8 -10 11 -10 5z"/>
<path d="M4180 2034 c0 -6 7 -19 16 -30 14 -18 14 -18 3 6 -14 31 -19 36 -19
24z"/>
<path d="M4210 1971 c0 -6 4 -13 10 -16 6 -3 7 1 4 9 -7 18 -14 21 -14 7z"/>
<path d="M4301 1945 c103 -173 285 -440 321 -471 12 -10 1 10 -25 46 -26 36
-104 151 -174 255 -123 185 -171 251 -122 170z"/>
<path d="M2851 1944 c-17 -14 -30 -29 -28 -33 1 -4 -18 -34 -41 -66 -24 -32
-46 -66 -50 -74 -3 -9 15 11 40 44 24 33 60 77 79 97 52 57 53 77 0 32z"/>
<path d="M4147 1935 c9 -19 18 -33 21 -31 4 5 -26 66 -33 66 -3 0 3 -16 12
-35z"/>
<path d="M4250 1890 c11 -22 23 -40 25 -40 3 0 -4 18 -15 40 -11 22 -23 40
-25 40 -3 0 4 -18 15 -40z"/>
<path d="M2755 1880 c-9 -16 -13 -30 -11 -30 3 0 12 14 21 30 9 17 13 30 11
30 -3 0 -12 -13 -21 -30z"/>
<path d="M4530 1840 c0 -15 94 -198 123 -241 13 -20 45 -74 70 -120 25 -46 53
-93 62 -104 l15 -20 -7 20 c-3 11 -25 52 -48 90 -23 39 -79 141 -124 228 -45
86 -84 157 -87 157 -2 0 -4 -5 -4 -10z"/>
<path d="M578 1815 c-3 -5 -20 -46 -37 -90 -18 -47 -53 -110 -85 -152 -30 -40
-51 -75 -46 -78 21 -13 185 277 178 313 -2 10 -6 13 -10 7z"/>
<path d="M4290 1812 c0 -4 4 -12 9 -17 4 -6 30 -50 56 -100 63 -120 125 -225
131 -225 3 0 -4 17 -17 38 -12 20 -55 99 -96 175 -70 129 -83 149 -83 129z"/>
<path d="M4255 1750 c9 -16 18 -30 21 -30 2 0 -2 14 -11 30 -9 17 -18 30 -21
30 -2 0 2 -13 11 -30z"/>
<path d="M4183 1760 c9 -29 222 -519 225 -516 5 5 -63 175 -130 326 -60 135
-105 225 -95 190z"/>
<path d="M2600 1698 c-60 -113 -140 -241 -249 -393 -150 -211 -158 -223 -186
-293 -34 -84 -31 -103 4 -22 16 36 77 137 137 223 l108 157 26 -78 c25 -73 75
-182 85 -182 2 0 -9 28 -24 63 -16 34 -40 95 -54 136 l-26 73 58 87 c64 94
166 279 159 287 -3 2 -20 -24 -38 -58z"/>
<path d="M4306 1668 c48 -76 196 -293 212 -308 8 -8 -40 67 -107 168 -67 100
-124 182 -126 182 -3 0 7 -19 21 -42z"/>
<path d="M3730 1603 c1 -5 8 -19 16 -33 8 -14 13 -17 10 -7 -3 10 -6 25 -6 33
0 8 -4 14 -10 14 -5 0 -10 -3 -10 -7z"/>
<path d="M3885 1568 c13 -60 46 -356 52 -468 6 -135 -3 -260 -18 -225 -5 13
-8 15 -8 5 -1 -8 -11 1 -23 20 -22 34 -82 112 -124 159 -17 18 -21 32 -17 62
7 48 -13 82 -66 109 -21 10 -49 32 -61 47 l-21 28 5 -31 c4 -25 1 -33 -17 -41
-17 -8 -10 -9 29 -6 46 5 53 3 73 -23 24 -30 16 -44 -26 -44 -13 0 -23 -4 -23
-9 0 -5 -28 -23 -61 -40 -34 -17 -68 -36 -75 -42 -24 -20 -18 73 6 104 20 25
20 25 0 20 -10 -3 -19 -8 -18 -12 2 -18 -4 -21 -21 -12 -16 9 -33 -3 -118 -87
l-98 -97 3 -85 c3 -83 2 -86 -28 -118 -31 -33 -32 -34 -52 -15 -21 18 -21 18
-8 -6 10 -19 10 -28 -1 -47 -7 -13 -9 -27 -6 -31 4 -3 7 -2 7 4 0 6 17 28 38
50 118 125 172 186 172 193 0 4 24 22 54 38 29 17 62 41 72 54 30 38 141 118
162 118 12 0 28 -13 39 -32 11 -18 43 -58 71 -89 29 -31 52 -61 52 -65 0 -5
16 -35 35 -68 24 -39 34 -65 29 -78 -4 -14 -2 -18 5 -14 6 4 11 15 11 24 0 11
3 13 10 6 13 -13 2 -44 -15 -44 -8 0 -18 -23 -26 -57 -7 -32 -16 -67 -21 -78
-8 -19 -8 -19 5 -2 8 9 19 17 24 17 11 0 28 64 24 88 -1 7 6 20 15 30 17 16
17 16 12 -5 -4 -15 -2 -20 7 -17 8 3 19 -12 30 -41 10 -25 22 -48 27 -51 4 -3
-1 20 -13 52 -18 46 -19 58 -8 65 19 11 31 -3 39 -48 7 -36 8 -36 9 -7 1 21
-11 47 -39 84 l-40 54 0 185 c0 102 -5 231 -10 285 -5 55 -8 101 -6 103 5 5
125 -283 167 -401 24 -70 36 -119 33 -135 -14 -60 -55 -184 -74 -221 -11 -22
-18 -40 -15 -40 12 0 87 170 92 210 8 55 18 41 37 -52 27 -129 19 -287 -18
-403 -3 -11 3 -1 14 22 41 86 41 309 -2 468 -25 94 -143 393 -237 598 -17 38
-31 75 -31 82 0 8 -5 17 -10 20 -7 4 -9 -2 -5 -17z m38 -98 c3 -11 1 -18 -4
-14 -5 3 -9 12 -9 20 0 20 7 17 13 -6z m-441 -368 c5 -67 -5 -95 -41 -118 -66
-44 -98 -10 -67 70 20 51 74 116 92 109 7 -2 14 -29 16 -61z m248 37 c0 -27
-2 -29 -15 -15 -23 22 -19 35 13 45 1 1 2 -13 2 -30z m-376 -118 c-3 -21 -2
-47 4 -57 8 -14 4 -27 -19 -61 -17 -23 -39 -47 -49 -53 -19 -10 -20 -7 -20 57
0 66 1 68 42 110 23 24 44 43 45 43 2 0 0 -18 -3 -39z m611 -197 c14 -21 15
-28 4 -35 -19 -12 -29 -1 -29 32 0 36 3 36 25 3z m-68 -116 c-3 -7 -5 -2 -5
12 0 14 2 19 5 13 2 -7 2 -19 0 -25z"/>
<path d="M2965 1569 c-4 -6 -5 -12 -2 -15 2 -3 7 2 10 11 7 17 1 20 -8 4z"/>
<path d="M3591 1524 c0 -11 3 -14 6 -6 3 7 2 16 -1 19 -3 4 -6 -2 -5 -13z"/>
<path d="M2919 1503 c-13 -16 -12 -17 4 -4 16 13 21 21 13 21 -2 0 -10 -8 -17
-17z"/>
<path d="M3771 1490 c0 -14 28 -72 29 -59 0 4 -7 22 -15 40 -8 19 -14 27 -14
19z"/>
<path d="M646 1392 c-24 -57 -88 -173 -152 -272 -13 -21 -12 -20 9 4 54 63
189 318 175 332 -3 2 -17 -26 -32 -64z"/>
<path d="M4520 1404 c39 -70 60 -101 60 -92 0 13 -72 138 -83 145 -5 3 5 -20
23 -53z"/>
<path d="M890 1400 c-9 -6 -10 -10 -3 -10 6 0 15 5 18 10 8 12 4 12 -15 0z"/>
<path d="M4755 1275 c66 -108 85 -135 85 -123 0 10 -120 201 -137 218 -8 8 15
-34 52 -95z"/>
<path d="M3833 1283 c3 -16 16 -71 27 -123 12 -52 27 -133 35 -180 l15 -85 -5
81 c-6 102 -56 334 -72 334 -3 0 -3 -12 0 -27z"/>
<path d="M4830 1293 c0 -11 80 -156 92 -168 5 -5 -11 32 -36 83 -42 84 -56
105 -56 85z"/>
<path d="M4600 1259 c0 -8 7 -24 15 -35 18 -24 19 -7 0 26 -9 16 -14 19 -15 9z"/>
<path d="M4421 1184 c0 -11 3 -14 6 -6 3 7 2 16 -1 19 -3 4 -6 -2 -5 -13z"/>
<path d="M2137 1146 c8 -14 5 -35 -9 -80 -23 -73 -34 -237 -20 -286 8 -29 9
-24 5 32 -7 78 10 197 38 282 11 32 17 61 14 64 -3 3 -5 0 -5 -8 0 -10 -4 -10
-17 1 -15 13 -15 12 -6 -5z"/>
<path d="M3532 1131 c-6 -17 -9 -31 -6 -31 7 0 25 52 20 57 -2 2 -8 -10 -14
-26z"/>
<path d="M4660 1144 c0 -5 7 -18 15 -28 8 -11 15 -16 15 -10 0 5 -7 18 -15 28
-8 11 -15 16 -15 10z"/>
<path d="M4855 1110 c9 -16 18 -30 21 -30 2 0 -2 14 -11 30 -9 17 -18 30 -21
30 -2 0 2 -13 11 -30z"/>
<path d="M559 1093 c-13 -16 -12 -17 4 -4 9 7 17 15 17 17 0 8 -8 3 -21 -13z"/>
<path d="M1061 1015 c-36 -84 -86 -274 -100 -380 -12 -83 -7 -98 8 -23 5 29
19 98 29 153 11 55 38 149 61 209 47 126 49 154 2 41z"/>
<path d="M2542 1060 c0 -14 4 -36 8 -50 8 -24 8 -24 8 5 0 17 -3 39 -8 50 -8
18 -9 18 -8 -5z"/>
<path d="M4441 1064 c0 -11 3 -14 6 -6 3 7 2 16 -1 19 -3 4 -6 -2 -5 -13z"/>
<path d="M4701 1068 c-1 -12 31 -89 35 -85 3 2 -4 24 -15 48 -11 24 -20 41
-20 37z"/>
<path d="M1933 1014 c-2 -36 11 -39 20 -5 3 11 0 25 -7 30 -8 6 -12 -1 -13
-25z"/>
<path d="M1991 1043 c-1 -6 -4 -20 -7 -30 -5 -17 -5 -17 6 0 6 10 9 23 6 30
-3 9 -5 9 -5 0z"/>
<path d="M4362 1025 c0 -16 3 -50 7 -75 6 -33 9 -37 9 -15 0 17 -3 50 -7 75
-6 33 -9 37 -9 15z"/>
<path d="M4452 1020 c0 -14 2 -19 5 -12 2 6 2 18 0 25 -3 6 -5 1 -5 -13z"/>
<path d="M3212 952 c-11 -11 -30 -38 -43 -61 -23 -42 -24 -43 -69 -37 -41 5
-41 3 -2 -10 10 -3 9 -10 -7 -29 -11 -14 -23 -40 -26 -58 -4 -18 -17 -45 -29
-62 -12 -16 -33 -55 -45 -85 -13 -30 -39 -77 -57 -105 -23 -33 -34 -62 -34
-85 0 -22 -11 -51 -30 -80 -16 -25 -30 -49 -30 -55 0 -5 9 5 20 22 12 20 25
30 34 27 10 -4 15 7 20 43 4 26 17 67 29 90 l21 42 19 -47 c11 -26 23 -63 27
-82 l8 -35 1 31 c0 16 8 39 16 50 20 27 18 36 -5 22 -24 -15 -29 -10 -40 39
-10 41 6 127 21 117 5 -3 9 6 9 20 0 13 11 37 24 53 13 15 26 46 30 67 8 41
58 102 76 91 5 -3 16 10 24 30 25 59 57 99 67 83 6 -9 9 -9 9 -1 0 22 -19 24
-38 5z"/>
<path d="M1931 924 c0 -11 3 -14 6 -6 3 7 2 16 -1 19 -3 4 -6 -2 -5 -13z"/>
<path d="M1575 854 c-4 -36 -5 -87 -3 -114 5 -48 4 -49 -26 -55 -73 -14 -180
-62 -215 -95 -21 -19 -25 -25 -11 -12 14 12 29 22 32 22 5 0 21 -70 23 -102 1
-22 57 -138 66 -138 4 0 -3 24 -16 53 -13 28 -32 85 -43 125 l-21 73 25 9 c38
15 39 14 53 -41 8 -28 28 -80 45 -115 29 -58 31 -65 17 -80 -15 -15 -14 -15 5
-4 24 15 71 -6 167 -73 31 -22 60 -38 63 -35 6 7 -84 67 -153 102 -29 14 -53
28 -53 31 0 2 15 18 33 36 l32 31 -37 -26 -37 -27 -19 38 c-11 21 -29 69 -42
107 -22 66 -22 70 -5 82 10 8 43 19 74 25 l56 11 2 119 c1 65 0 119 -2 119 -2
0 -7 -29 -10 -66z"/>
<path d="M2768 913 c7 -3 16 -2 19 1 4 3 -2 6 -13 5 -11 0 -14 -3 -6 -6z"/>
<path d="M2804 911 c7 -11 66 -20 66 -10 0 7 -35 19 -58 19 -7 0 -11 -4 -8 -9z"/>
<path d="M1411 899 c-1 -19 19 -81 30 -93 4 -5 1 13 -7 40 -19 65 -22 72 -23
53z"/>
<path d="M1750 858 c0 -18 -1 -42 -2 -53 -1 -11 2 -37 6 -57 l7 -38 -43 -1
c-24 0 -61 -4 -83 -9 -28 -5 -15 -6 45 -3 79 5 88 3 133 -22 31 -18 46 -32 43
-41 -3 -8 1 -14 9 -14 8 0 15 7 15 15 0 17 37 96 66 140 10 16 13 26 6 21 -10
-6 -11 -1 -7 21 5 21 1 17 -13 -14 -11 -23 -33 -48 -49 -57 -15 -8 -24 -15
-20 -16 5 0 17 5 28 10 10 6 19 9 19 6 0 -13 -24 -56 -32 -56 -4 0 -8 -7 -8
-15 0 -20 -9 -19 -46 4 -25 15 -33 29 -42 77 -7 31 -12 72 -12 90 0 18 -5 36
-10 39 -6 4 -10 -7 -10 -27z"/>
<path d="M1732 850 c0 -19 2 -27 5 -17 2 9 2 25 0 35 -3 9 -5 1 -5 -18z"/>
<path d="M1712 840 c0 -19 2 -27 5 -17 2 9 2 25 0 35 -3 9 -5 1 -5 -18z"/>
<path d="M3028 863 c7 -3 16 -2 19 1 4 3 -2 6 -13 5 -11 0 -14 -3 -6 -6z"/>
<path d="M881 824 c0 -11 3 -14 6 -6 3 7 2 16 -1 19 -3 4 -6 -2 -5 -13z"/>
<path d="M4372 810 c0 -14 2 -19 5 -12 2 6 2 18 0 25 -3 6 -5 1 -5 -13z"/>
<path d="M3363 813 c37 -2 97 -2 135 0 37 2 6 3 -68 3 -74 0 -105 -1 -67 -3z"/>
<path d="M861 743 c-7 -32 -14 -105 -16 -163 l-4 -105 9 100 c5 55 14 126 20
158 6 33 9 61 7 63 -2 3 -9 -22 -16 -53z"/>
<path d="M4361 744 c0 -11 3 -14 6 -6 3 7 2 16 -1 19 -3 4 -6 -2 -5 -13z"/>
<path d="M1784 623 c3 -4 0 -13 -7 -21 -11 -13 -9 -14 13 -2 34 17 34 17 9 23
-11 3 -18 3 -15 0z"/>
<path d="M3119 613 c-13 -16 -12 -17 4 -4 16 13 21 21 13 21 -2 0 -10 -8 -17
-17z"/>
<path d="M3802 575 c-41 -44 -57 -70 -27 -45 18 15 79 90 73 90 -2 0 -23 -20
-46 -45z"/>
<path d="M4346 551 c-3 -41 -4 -76 -2 -78 6 -6 19 123 14 139 -3 7 -8 -20 -12
-61z"/>
<path d="M3856 593 c-6 -14 -5 -15 5 -6 7 7 10 15 7 18 -3 3 -9 -2 -12 -12z"/>
<path d="M3080 566 c0 -19 -3 -43 -7 -53 -3 -10 -3 -15 2 -11 12 11 24 98 13
98 -4 0 -8 -15 -8 -34z"/>
<path d="M1925 550 c10 -11 20 -20 23 -20 3 0 -3 9 -13 20 -10 11 -20 20 -23
20 -3 0 3 -9 13 -20z"/>
<path d="M4026 538 c-8 -31 -8 -43 1 -34 8 8 16 56 10 56 -3 0 -7 -10 -11 -22z"/>
<path d="M951 524 c0 -11 3 -14 6 -6 3 7 2 16 -1 19 -3 4 -6 -2 -5 -13z"/>
<path d="M3790 495 c-7 -9 -8 -15 -2 -15 5 0 12 7 16 15 3 8 4 15 2 15 -2 0
-9 -7 -16 -15z"/>
<path d="M4037 488 c-2 -7 -1 -42 3 -78 l7 -65 2 78 c1 75 -2 90 -12 65z"/>
<path d="M3360 481 c0 -8 18 -31 40 -53 37 -37 43 -40 77 -33 57 10 59 20 4
17 -46 -4 -50 -2 -84 39 -21 23 -37 37 -37 30z"/>
<path d="M943 435 c0 -27 2 -38 4 -22 2 15 2 37 0 50 -2 12 -4 0 -4 -28z"/>
<path d="M3740 435 c-18 -19 -53 -44 -77 -55 -50 -24 -57 -33 -11 -17 28 11
142 106 127 107 -3 0 -20 -16 -39 -35z"/>
<path d="M852 420 c0 -19 2 -27 5 -17 2 9 2 25 0 35 -3 9 -5 1 -5 -18z"/>
<path d="M2140 416 c0 -3 9 -10 20 -16 11 -6 20 -8 20 -6 0 3 -9 10 -20 16
-11 6 -20 8 -20 6z"/>
<path d="M2399 403 c-13 -16 -12 -17 4 -4 16 13 21 21 13 21 -2 0 -10 -8 -17
-17z"/>
<path d="M1320 401 c0 -6 4 -13 10 -16 6 -3 7 1 4 9 -7 18 -14 21 -14 7z"/>
<path d="M861 364 c0 -11 3 -14 6 -6 3 7 2 16 -1 19 -3 4 -6 -2 -5 -13z"/>
<path d="M2365 360 c-10 -11 -16 -22 -13 -25 3 -3 13 6 22 20 20 30 16 32 -9
5z"/>
<path d="M2231 366 c2 -2 15 -9 29 -15 24 -11 24 -11 6 3 -16 13 -49 24 -35
12z"/>
<path d="M1465 350 c-3 -6 1 -7 9 -4 18 7 21 14 7 14 -6 0 -13 -4 -16 -10z"/>
<path d="M941 324 c0 -11 3 -14 6 -6 3 7 2 16 -1 19 -3 4 -6 -2 -5 -13z"/>
<path d="M1491 336 c10 -9 69 -36 69 -32 0 6 -55 36 -66 36 -4 0 -5 -2 -3 -4z"/>
<path d="M2305 322 c11 -11 24 -17 28 -15 4 3 24 -5 43 -16 19 -12 38 -21 42
-21 13 0 -38 31 -85 51 -46 20 -47 20 -28 1z"/>
<path d="M4053 305 c0 -22 2 -30 4 -17 2 12 2 30 0 40 -3 9 -5 -1 -4 -23z"/>
<path d="M1787 286 c-14 -18 -36 -53 -48 -77 -13 -24 -27 -47 -32 -50 -5 -4
-5 -9 1 -13 5 -3 15 9 22 27 7 17 31 58 52 90 42 63 45 76 5 23z"/>
<path d="M1605 273 c6 -6 28 -20 50 -32 22 -13 31 -15 20 -6 -22 18 -86 53
-70 38z"/>
<path d="M2966 265 c-16 -12 -17 -19 -7 -52 l10 -38 -3 35 c-2 22 2 42 12 53
18 20 14 22 -12 2z"/>
<path d="M2430 266 c0 -3 14 -12 30 -21 17 -9 30 -13 30 -11 0 3 -13 12 -30
21 -16 9 -30 13 -30 11z"/>
<path d="M2830 225 c0 -14 -5 -24 -11 -22 -6 1 -13 -3 -16 -10 -3 -7 3 -9 16
-6 15 4 21 13 21 34 0 16 -2 29 -5 29 -3 0 -5 -11 -5 -25z"/>
<path d="M4061 234 c0 -11 3 -14 6 -6 3 7 2 16 -1 19 -3 4 -6 -2 -5 -13z"/>
<path d="M4216 205 c-11 -8 -15 -15 -9 -15 6 0 16 7 23 15 16 19 11 19 -14 0z"/>
<path d="M4061 194 c0 -11 3 -14 6 -6 3 7 2 16 -1 19 -3 4 -6 -2 -5 -13z"/>
<path d="M3271 171 c-1 -34 20 -154 29 -164 4 -5 1 29 -7 75 -17 106 -20 118
-22 89z"/>
<path d="M1656 169 c-2 -8 -9 -29 -15 -48 -19 -58 -11 -59 10 -2 10 30 17 57
14 59 -2 3 -6 -1 -9 -9z"/>
<path d="M2940 148 c-12 -22 -12 -22 6 -6 10 10 15 20 12 24 -4 3 -12 -5 -18
-18z"/>
<path d="M2792 130 c0 -14 2 -19 5 -12 2 6 2 18 0 25 -3 6 -5 1 -5 -13z"/>
<path d="M2190 120 c-6 -11 -8 -20 -6 -20 3 0 10 9 16 20 6 11 8 20 6 20 -3 0
-10 -9 -16 -20z"/>
<path d="M4072 115 c0 -16 2 -22 5 -12 2 9 2 23 0 30 -3 6 -5 -1 -5 -18z"/>
<path d="M4070 70 c0 -5 5 -10 11 -10 5 0 7 5 4 10 -3 6 -8 10 -11 10 -2 0 -4
-4 -4 -10z"/>
<path d="M2146 45 c-20 -30 -21 -46 -1 -39 8 4 12 10 9 15 -2 5 0 18 6 29 15
28 6 25 -14 -5z"/>
<path d="M2178 3 c7 -3 16 -2 19 1 4 3 -2 6 -13 5 -11 0 -14 -3 -6 -6z"/>
</g>
</svg>
